<svg height="512pt" viewBox="0 0 512 512" width="512pt" xmlns="http://www.w3.org/2000/svg"><path d="m512 256.03125c0 5.914062-.175781 11.828125-.707031 17.65625-7.09375 102.292969-74.539063 190.480469-171.398438 224.121094-96.863281 33.640625-204.453125 6.238281-273.421875-69.636719l-.265625-.265625c-18.617187-20.558594-33.789062-43.988281-44.933593-69.386719-1.410157-3.265625-2.824219-6.621093-4.058594-9.972656-.882813-2.207031-1.765625-4.503906-2.472656-6.800781-.707032-1.765625-1.324219-3.441406-1.855469-5.207032-.527344-1.765624-1.234375-3.617187-1.675781-5.472656-.59375-1.679687-1.09375-3.386718-1.5-5.121094-.796876-2.648437-1.5-5.296874-2.121094-7.945312-.1875-.605469-.335938-1.226562-.441406-1.851562-.792969-3.089844-1.5-6.179688-2.117188-9.359376-.707031-3.53125-1.324219-7.058593-1.941406-10.589843-.617188-4.328125-1.234375-8.742188-1.675782-13.15625-.355468-3.089844-.621093-6.179688-.796874-9.265625v-.265625c-.265626-2.824219-.351563-5.738281-.441407-8.652344-.0859372-2.914063-.175781-5.824219-.175781-8.828125zm0 0" fill="#c9ced1"/><path d="m482.867188 256.03125c-.792969 5.914062-1.851563 11.828125-3.085938 17.65625-19.082031 89.535156-84.523438 162.070312-171.628906 190.230469-87.109375 28.160156-182.625 7.664062-250.507813-53.757813l-.265625-.261718c-14.125-15.558594-26.253906-32.816407-36.105468-51.378907-1.410157-3.265625-2.824219-6.621093-4.058594-9.972656-.882813-2.207031-1.765625-4.503906-2.472656-6.800781-.707032-1.765625-1.324219-3.441406-1.855469-5.207032-.527344-1.765624-1.234375-3.617187-1.675781-5.472656-.59375-1.679687-1.09375-3.386718-1.5-5.121094-.796876-2.648437-1.5-5.296874-2.121094-7.945312-.1875-.605469-.335938-1.226562-.441406-1.851562-.792969-3.089844-1.5-6.179688-2.117188-9.359376-.707031-3.53125-1.324219-7.058593-1.941406-10.589843-.617188-4.328125-1.234375-8.742188-1.675782-13.15625-.355468-3.089844-.621093-6.179688-.796874-9.265625v-.265625c-.265626-2.824219-.351563-5.738281-.441407-8.652344-.0859372-2.914063-.175781-5.824219-.175781-8.828125zm0 0" fill="#f0f3f4"/><path d="m512 256.03125h-512c0-5.914062.175781-11.828125.707031-17.65625 9.207031-134.210938 120.765625-238.375 255.292969-238.375s246.085938 104.164062 255.292969 238.375c.53125 5.828125.707031 11.742188.707031 17.65625zm0 0" fill="#d8625e"/><path d="m361.929688 256.03125c0 58.503906-47.425782 105.933594-105.929688 105.933594s-105.929688-47.429688-105.929688-105.933594 47.425782-105.929688 105.929688-105.929688 105.929688 47.425782 105.929688 105.929688zm0 0" fill="#586270"/><path d="m326.621094 256.03125c0 39.003906-31.617188 70.621094-70.621094 70.621094s-70.621094-31.617188-70.621094-70.621094 31.617188-70.621094 70.621094-70.621094 70.621094 31.617188 70.621094 70.621094zm0 0" fill="#f0f3f4"/><path d="m273.65625 256.03125c0 9.75-7.90625 17.65625-17.65625 17.65625s-17.65625-7.90625-17.65625-17.65625 7.90625-17.65625 17.65625-17.65625 17.65625 7.90625 17.65625 17.65625zm0 0" fill="#586270"/><path d="m186.085938 52.996094c-40.28125 33.785156-67.402344 80.65625-76.625 132.414062h-66.734376c14.433594-54.742187 48.980469-102.027344 96.75-132.414062zm0 0" fill="#fe9189"/><g fill="#586270"><path d="m167.722656 238.375v35.3125h-167.105468v-.175781c-.265626-2.824219-.351563-5.738281-.441407-8.652344-.0859372-2.914063-.175781-5.824219-.175781-8.828125 0-5.914062.175781-11.828125.707031-17.65625zm0 0"/><path d="m512 256.03125c0 5.914062-.175781 11.828125-.707031 17.65625h-167.015625v-35.3125h167.015625c.53125 5.828125.707031 11.742188.707031 17.65625zm0 0"/></g></svg>